<svg width="32" height="32" viewBox="0 0 32 32" fill="none" xmlns="http://www.w3.org/2000/svg">
<path d="M6.375 16C6.85825 16 7.25 15.6162 7.25 15.1429C7.25 14.6695 6.85825 14.2857 6.375 14.2857C5.89175 14.2857 5.5 14.6695 5.5 15.1429C5.5 15.6162 5.89175 16 6.375 16Z" fill="#050542"/>
<path d="M10.75 4C8.817 4 7.25 5.53502 7.25 7.42857V10.8571H5.5C3.567 10.8571 2 12.3922 2 14.2857V19.4286C2 21.3221 3.567 22.8571 5.5 22.8571H7.25V24.5714C7.25 26.465 8.817 28 10.75 28H21.25C23.183 28 24.75 26.465 24.75 24.5714V22.8571H26.5C28.433 22.8571 30 21.3221 30 19.4286V14.2857C30 12.3922 28.433 10.8571 26.5 10.8571H24.75V7.42857C24.75 5.53502 23.183 4 21.25 4H10.75ZM9 7.42857C9 6.4818 9.7835 5.71429 10.75 5.71429H21.25C22.2165 5.71429 23 6.4818 23 7.42857V10.8571H9V7.42857ZM10.75 16C8.817 16 7.25 17.535 7.25 19.4286V21.1429H5.5C4.5335 21.1429 3.75 20.3753 3.75 19.4286V14.2857C3.75 13.3389 4.5335 12.5714 5.5 12.5714H26.5C27.4665 12.5714 28.25 13.3389 28.25 14.2857V19.4286C28.25 20.3753 27.4665 21.1429 26.5 21.1429H24.75V19.4286C24.75 17.535 23.183 16 21.25 16H10.75ZM23 19.4286V24.5714C23 25.5182 22.2165 26.2857 21.25 26.2857H10.75C9.7835 26.2857 9 25.5182 9 24.5714V19.4286C9 18.4818 9.7835 17.7143 10.75 17.7143H21.25C22.2165 17.7143 23 18.4818 23 19.4286Z" fill="#050542"/>
</svg>
