<svg width="40" height="40" viewBox="0 0 40 40" fill="none" xmlns="http://www.w3.org/2000/svg">
<path fill-rule="evenodd" clip-rule="evenodd" d="M24.7789 5.3084C25.1901 4.8972 25.8568 4.8972 26.268 5.3084L34.6916 13.732C35.1028 14.1432 35.1028 14.8099 34.6916 15.2211L30.686 19.2266L28.9414 26.2051C28.6712 27.2859 27.8517 28.1445 26.7846 28.4646L5 35L11.5354 13.2154C11.8555 12.1483 12.7141 11.3288 13.7949 11.0586L20.7734 9.31396L24.7789 5.3084ZM20.9887 11.4308L14.3056 13.1016C13.9453 13.1917 13.6592 13.4649 13.5525 13.8206L8.14088 31.8591L26.1794 26.4475C26.5351 26.3408 26.8083 26.0547 26.8984 25.6944L28.5692 19.0113L20.9887 11.4308Z" fill="#FF9751"/>
<path fill-rule="evenodd" clip-rule="evenodd" d="M8.32245 31.8046L19.2059 22.9001C20.369 22.9001 21.3118 21.9573 21.3118 20.7942C21.3118 19.6311 20.369 18.6883 19.2059 18.6883C18.0428 18.6883 17.1 19.6311 17.1 20.7942L8.19533 31.6776L8.14088 31.8591L8.32245 31.8046Z" fill="#FF9751"/>
</svg>
