<svg width="24" height="24" viewBox="0 0 24 24" fill="none" xmlns="http://www.w3.org/2000/svg">
<path d="M12 12C14.7614 12 17 9.76142 17 7C17 4.23858 14.7614 2 12 2C9.23858 2 7 4.23858 7 7C7 9.76142 9.23858 12 12 12ZM15.3333 7C15.3333 8.84095 13.8409 10.3333 12 10.3333C10.1591 10.3333 8.66667 8.84095 8.66667 7C8.66667 5.15905 10.1591 3.66667 12 3.66667C13.8409 3.66667 15.3333 5.15905 15.3333 7Z" fill="#050542"/>
<path d="M22 20.3333C22 22 20.3333 22 20.3333 22H3.66667C3.66667 22 2 22 2 20.3333C2 18.6667 3.66667 13.6667 12 13.6667C20.3333 13.6667 22 18.6667 22 20.3333ZM20.3333 20.3275C20.3309 19.9162 20.077 18.6841 18.9465 17.5535C17.8594 16.4664 15.8152 15.3333 12 15.3333C8.1848 15.3333 6.14059 16.4664 5.05349 17.5535C3.92292 18.6841 3.66904 19.9162 3.66667 20.3275H20.3333Z" fill="#050542"/>
</svg>
