<svg width="24" height="24" viewBox="0 0 24 24" fill="none" xmlns="http://www.w3.org/2000/svg">
<path d="M2 2.66667C2 2.29848 2.29848 2 2.66667 2H4.66667C4.97258 2 5.23923 2.2082 5.31343 2.50498L5.85385 4.66667H21.3333C21.5317 4.66667 21.7197 4.75496 21.8463 4.90758C21.973 5.06019 22.0251 5.26127 21.9886 5.45619L19.9886 16.1229C19.9295 16.4382 19.6541 16.6667 19.3333 16.6667H18H8.66667H7.33333C7.01252 16.6667 6.73721 16.4382 6.67808 16.1229L4.68175 5.47573L4.14615 3.33333H2.66667C2.29848 3.33333 2 3.03486 2 2.66667ZM6.13662 6L7.88662 15.3333H18.78L20.53 6H6.13662ZM8.66667 16.6667C7.19391 16.6667 6 17.8606 6 19.3333C6 20.8061 7.19391 22 8.66667 22C10.1394 22 11.3333 20.8061 11.3333 19.3333C11.3333 17.8606 10.1394 16.6667 8.66667 16.6667ZM18 16.6667C16.5272 16.6667 15.3333 17.8606 15.3333 19.3333C15.3333 20.8061 16.5272 22 18 22C19.4728 22 20.6667 20.8061 20.6667 19.3333C20.6667 17.8606 19.4728 16.6667 18 16.6667ZM8.66667 18C9.40304 18 10 18.5969 10 19.3333C10 20.0697 9.40304 20.6667 8.66667 20.6667C7.93029 20.6667 7.33333 20.0697 7.33333 19.3333C7.33333 18.5969 7.93029 18 8.66667 18ZM18 18C18.7364 18 19.3333 18.5969 19.3333 19.3333C19.3333 20.0697 18.7364 20.6667 18 20.6667C17.2636 20.6667 16.6667 20.0697 16.6667 19.3333C16.6667 18.5969 17.2636 18 18 18Z" fill="#050542"/>
</svg>
