<svg width="16" height="16" viewBox="0 0 16 16" fill="none" xmlns="http://www.w3.org/2000/svg">
<path d="M5.46923 5.5C5.74378 5.5 5.96636 5.72386 5.96636 6V12C5.96635 12.2761 5.74378 12.5 5.46923 12.5C5.19467 12.5 4.9721 12.2761 4.9721 12V6C4.9721 5.72386 5.19467 5.5 5.46923 5.5Z" fill="#050542"/>
<path d="M7.95487 5.5C8.22943 5.5 8.452 5.72386 8.452 6V12C8.452 12.2761 8.22943 12.5 7.95487 12.5C7.68032 12.5 7.45774 12.2761 7.45774 12V6C7.45774 5.72386 7.68032 5.5 7.95487 5.5Z" fill="#050542"/>
<path d="M10.9377 6C10.9377 5.72386 10.7151 5.5 10.4405 5.5C10.166 5.5 9.94339 5.72386 9.94339 6V12C9.94339 12.2761 10.166 12.5 10.4405 12.5C10.7151 12.5 10.9377 12.2761 10.9377 12V6Z" fill="#050542"/>
<path fill-rule="evenodd" clip-rule="evenodd" d="M14.4176 3C14.4176 3.55228 13.9724 4 13.4233 4H12.9262V13C12.9262 14.1046 12.0359 15 10.9377 15H4.9721C3.87387 15 2.98358 14.1046 2.98358 13V4H2.48645C1.93733 4 1.49219 3.55228 1.49219 3V2C1.49219 1.44772 1.93733 1 2.48645 1H5.96636C5.96636 0.447715 6.4115 0 6.96061 0H8.94913C9.49825 0 9.94339 0.447715 9.94339 1H13.4233C13.9724 1 14.4176 1.44772 14.4176 2V3ZM4.09519 4L3.97784 4.05902V13C3.97784 13.5523 4.42298 14 4.9721 14H10.9377C11.4868 14 11.9319 13.5523 11.9319 13V4.05902L11.8146 4H4.09519ZM2.48645 3V2H13.4233V3H2.48645Z" fill="#050542"/>
</svg>
