<svg width="24" height="24" viewBox="0 0 24 24" fill="none" xmlns="http://www.w3.org/2000/svg">
<path d="M16.2099 14.6369C17.0995 13.4257 17.625 11.9305 17.625 10.3125C17.625 6.27392 14.3511 3 10.3125 3C6.27392 3 3 6.27392 3 10.3125C3 14.3511 6.27392 17.625 10.3125 17.625C11.9309 17.625 13.4265 17.0992 14.6378 16.2092L14.6369 16.2099C14.6701 16.2549 14.707 16.298 14.7477 16.3387L19.0795 20.6705C19.5188 21.1098 20.2312 21.1098 20.6705 20.6705C21.1098 20.2312 21.1098 19.5188 20.6705 19.0795L16.3387 14.7477C16.298 14.707 16.2549 14.6701 16.2099 14.6369ZM16.5 10.3125C16.5 13.7298 13.7298 16.5 10.3125 16.5C6.89524 16.5 4.125 13.7298 4.125 10.3125C4.125 6.89524 6.89524 4.125 10.3125 4.125C13.7298 4.125 16.5 6.89524 16.5 10.3125Z" fill="#050542"/>
</svg>
