<svg width="12" height="12" viewBox="0 0 12 12" fill="none" xmlns="http://www.w3.org/2000/svg">
<path d="M2.25 3C2.25 2.7929 2.41789 2.625 2.625 2.625H7.125C7.33211 2.625 7.5 2.7929 7.5 3C7.5 3.20711 7.33211 3.375 7.125 3.375H2.625C2.41789 3.375 2.25 3.20711 2.25 3Z" fill="#050542"/>
<path d="M2.25 4.5C2.25 4.2929 2.41789 4.125 2.625 4.125H7.125C7.33211 4.125 7.5 4.2929 7.5 4.5C7.5 4.70711 7.33211 4.875 7.125 4.875H2.625C2.41789 4.875 2.25 4.70711 2.25 4.5Z" fill="#050542"/>
<path d="M2.25 6C2.25 5.7929 2.41789 5.625 2.625 5.625H7.125C7.33211 5.625 7.5 5.7929 7.5 6C7.5 6.20711 7.33211 6.375 7.125 6.375H2.625C2.41789 6.375 2.25 6.20711 2.25 6Z" fill="#050542"/>
<path d="M2.25 7.5C2.25 7.2929 2.41789 7.125 2.625 7.125H7.125C7.33211 7.125 7.5 7.2929 7.5 7.5C7.5 7.70711 7.33211 7.875 7.125 7.875H2.625C2.41789 7.875 2.25 7.70711 2.25 7.5Z" fill="#050542"/>
<path d="M2.25 9C2.25 8.7929 2.41789 8.625 2.625 8.625H7.125C7.33211 8.625 7.5 8.7929 7.5 9C7.5 9.20711 7.33211 9.375 7.125 9.375H2.625C2.41789 9.375 2.25 9.20711 2.25 9Z" fill="#050542"/>
<path d="M8.625 2.625C8.41789 2.625 8.25 2.7929 8.25 3C8.25 3.20711 8.41789 3.375 8.625 3.375H9.375C9.58211 3.375 9.75 3.20711 9.75 3C9.75 2.7929 9.58211 2.625 9.375 2.625H8.625Z" fill="#050542"/>
<path d="M8.625 4.125C8.41789 4.125 8.25 4.2929 8.25 4.5C8.25 4.70711 8.41789 4.875 8.625 4.875H9.375C9.58211 4.875 9.75 4.70711 9.75 4.5C9.75 4.2929 9.58211 4.125 9.375 4.125H8.625Z" fill="#050542"/>
<path d="M8.625 5.625C8.41789 5.625 8.25 5.7929 8.25 6C8.25 6.20711 8.41789 6.375 8.625 6.375H9.375C9.58211 6.375 9.75 6.20711 9.75 6C9.75 5.7929 9.58211 5.625 9.375 5.625H8.625Z" fill="#050542"/>
<path d="M8.625 7.125C8.41789 7.125 8.25 7.2929 8.25 7.5C8.25 7.70711 8.41789 7.875 8.625 7.875H9.375C9.58211 7.875 9.75 7.70711 9.75 7.5C9.75 7.2929 9.58211 7.125 9.375 7.125H8.625Z" fill="#050542"/>
<path d="M8.625 8.625C8.41789 8.625 8.25 8.7929 8.25 9C8.25 9.20711 8.41789 9.375 8.625 9.375H9.375C9.58211 9.375 9.75 9.20711 9.75 9C9.75 8.7929 9.58211 8.625 9.375 8.625H8.625Z" fill="#050542"/>
<path d="M1.76516 0.109839C1.67993 0.0246039 1.55892 -0.0144618 1.43993 0.00484674C1.32095 0.0241553 1.2185 0.099484 1.16459 0.207299L0.78959 0.957299C0.763554 1.00937 0.75 1.06679 0.75 1.125V10.875H0.375C0.167893 10.875 0 11.0429 0 11.25C0 11.4571 0.167893 11.625 0.375 11.625H11.625C11.8321 11.625 12 11.4571 12 11.25C12 11.0429 11.8321 10.875 11.625 10.875H11.25V1.125C11.25 1.06679 11.2364 1.00937 11.2104 0.957299L10.8354 0.207299C10.7815 0.099484 10.6791 0.0241553 10.5601 0.00484674C10.4411 -0.0144618 10.3201 0.0246039 10.2348 0.109839L9.75 0.594674L9.26517 0.109839C9.11872 -0.0366071 8.88128 -0.0366071 8.73483 0.109839L8.25 0.594674L7.76517 0.109839C7.61872 -0.0366071 7.38128 -0.0366071 7.23483 0.109839L6.75 0.594674L6.26517 0.109839C6.11872 -0.0366071 5.88128 -0.0366071 5.73484 0.109839L5.25 0.594674L4.76516 0.109839C4.61872 -0.0366071 4.38128 -0.0366071 4.23484 0.109839L3.75 0.594674L3.26516 0.109839C3.11872 -0.0366071 2.88128 -0.0366071 2.73484 0.109839L2.25 0.594674L1.76516 0.109839ZM1.60273 1.00807L1.98484 1.39017C2.13128 1.53662 2.36872 1.53662 2.51516 1.39017L3 0.905335L3.48484 1.39017C3.63128 1.53662 3.86872 1.53662 4.01516 1.39017L4.5 0.905335L4.98484 1.39017C5.13128 1.53662 5.36872 1.53662 5.51516 1.39017L6 0.905335L6.48483 1.39017C6.63128 1.53662 6.86872 1.53662 7.01517 1.39017L7.5 0.905335L7.98483 1.39017C8.13128 1.53662 8.36872 1.53662 8.51517 1.39017L9 0.905335L9.48483 1.39017C9.63128 1.53662 9.86872 1.53662 10.0152 1.39017L10.3973 1.00807L10.5 1.21353V10.875H1.5V1.21353L1.60273 1.00807Z" fill="#050542"/>
</svg>
