<svg width="40" height="40" viewBox="0 0 40 40" fill="none" xmlns="http://www.w3.org/2000/svg">
<path d="M30.1572 8.19127C30.1572 6.42878 31.586 5 33.3485 5C35.1109 5 36.5397 6.42878 36.5397 8.19127V31.5939C36.5397 33.3564 35.1109 34.7852 33.3485 34.7852C31.586 34.7852 30.1572 33.3564 30.1572 31.5939V31.1392C25.5577 28.4983 20.6054 27.2164 15.4518 26.7062L16.3131 32.4763C16.5615 33.7837 15.5591 35 14.2228 35H13.0557C12.209 35 11.4452 34.4983 11.1071 33.7266L7.17211 26.2998C7.02873 26.2976 6.88535 26.2957 6.74198 26.294C4.40494 26.2667 2.49951 24.3731 2.49951 22.0201V17.7651C2.49951 15.4126 4.40342 13.518 6.73767 13.4817C8.34039 13.4569 10.2984 13.4103 12.0196 13.3232C18.4947 12.9958 25.1001 11.5173 30.1572 8.64438V8.19127ZM32.2847 8.19127V31.5939C32.2847 32.1814 32.761 32.6577 33.3485 32.6577C33.9359 32.6577 34.4122 32.1814 34.4122 31.5939V8.19127C34.4122 7.60377 33.9359 7.12751 33.3485 7.12751C32.761 7.12751 32.2847 7.60377 32.2847 8.19127ZM30.1572 11.0624C25.1695 13.6281 19.076 14.982 13.1371 15.388V24.3933C13.52 24.4165 13.9007 24.442 14.279 24.4699C19.7434 24.8727 25.1154 26.0547 30.1572 28.7112V11.0624ZM11.0096 24.2848V15.4981C9.56181 15.5555 8.04877 15.5892 6.77069 15.609C5.58039 15.6275 4.62702 16.5926 4.62702 17.7651V22.0201C4.62702 23.192 5.57917 24.1528 6.76687 24.1666C7.12459 24.1708 7.4822 24.1766 7.8397 24.1838C8.89722 24.205 9.95381 24.2392 11.0096 24.2848ZM9.61168 26.36L13.0348 32.8207L13.0557 32.8725L14.2227 32.8725L14.2168 32.8437L13.275 26.5335C12.8598 26.507 12.4413 26.4833 12.0196 26.462C11.2168 26.4214 10.4142 26.3871 9.61168 26.36Z" fill="#FF9751"/>
</svg>
