<svg width="13" height="12" viewBox="0 0 13 12" fill="none" xmlns="http://www.w3.org/2000/svg">
<path d="M6.5 11.25C3.60051 11.25 1.25 8.8995 1.25 6C1.25 3.10051 3.60051 0.75 6.5 0.75C9.3995 0.75 11.75 3.10051 11.75 6C11.75 8.8995 9.3995 11.25 6.5 11.25ZM6.5 12C9.81371 12 12.5 9.31371 12.5 6C12.5 2.68629 9.81371 0 6.5 0C3.18629 0 0.5 2.68629 0.5 6C0.5 9.31371 3.18629 12 6.5 12Z" fill="white"/>
<path d="M8.72725 3.72725C8.72194 3.73256 8.71696 3.73818 8.71233 3.74408L6.10805 7.06256L4.53791 5.49242C4.31824 5.27275 3.96208 5.27275 3.74241 5.49242C3.52274 5.71209 3.52274 6.06824 3.74241 6.28791L5.72725 8.27275C5.94692 8.49242 6.30307 8.49242 6.52274 8.27275C6.52763 8.26786 6.53225 8.2627 6.53657 8.2573L9.53073 4.5146C9.74238 4.29436 9.73972 3.94423 9.52274 3.72725C9.30307 3.50758 8.94692 3.50758 8.72725 3.72725Z" fill="white"/>
</svg>
