<svg width="14" height="24" viewBox="0 0 14 24" fill="none" xmlns="http://www.w3.org/2000/svg">
<path d="M7 1.5C8.5464 1.5 9.8 2.84315 9.8 4.5V10.5H4.2V4.5C4.2 2.84315 5.4536 1.5 7 1.5ZM11.2 10.5V4.5C11.2 2.01472 9.3196 0 7 0C4.6804 0 2.8 2.01472 2.8 4.5V10.5C1.2536 10.5 0 11.8431 0 13.5V21C0 22.6569 1.2536 24 2.8 24H11.2C12.7464 24 14 22.6569 14 21V13.5C14 11.8431 12.7464 10.5 11.2 10.5ZM2.8 12H11.2C11.9732 12 12.6 12.6716 12.6 13.5V21C12.6 21.8284 11.9732 22.5 11.2 22.5H2.8C2.0268 22.5 1.4 21.8284 1.4 21V13.5C1.4 12.6716 2.0268 12 2.8 12Z" fill="#050542"/>
</svg>
