<svg width="40" height="40" viewBox="0 0 40 40" fill="none" xmlns="http://www.w3.org/2000/svg">
<path fill-rule="evenodd" clip-rule="evenodd" d="M11.5625 16.8182C11.0447 16.8182 10.625 17.2252 10.625 17.7273V32.2727C10.625 32.7748 11.0447 33.1818 11.5625 33.1818H28.4375C28.9553 33.1818 29.375 32.7748 29.375 32.2727V17.7273C29.375 17.2252 28.9553 16.8182 28.4375 16.8182H24.6875C24.1697 16.8182 23.75 16.4112 23.75 15.9091C23.75 15.407 24.1697 15 24.6875 15H28.4375C29.9908 15 31.25 16.221 31.25 17.7273V32.2727C31.25 33.779 29.9908 35 28.4375 35H11.5625C10.0092 35 8.75 33.779 8.75 32.2727V17.7273C8.75 16.221 10.0092 15 11.5625 15H15.3125C15.8303 15 16.25 15.407 16.25 15.9091C16.25 16.4112 15.8303 16.8182 15.3125 16.8182H11.5625Z" fill="#050542"/>
<path fill-rule="evenodd" clip-rule="evenodd" d="M19.3687 5.26627C19.7173 4.91124 20.2827 4.91124 20.6313 5.26627L25.9885 10.7208C26.3372 11.0758 26.3372 11.6514 25.9885 12.0065C25.6398 12.3615 25.0745 12.3615 24.7258 12.0065L20.8929 8.10383V24.0909C20.8929 24.593 20.4931 25 20 25C19.5069 25 19.1071 24.593 19.1071 24.0909V8.10383L15.2742 12.0065C14.9255 12.3615 14.3602 12.3615 14.0115 12.0065C13.6628 11.6514 13.6628 11.0758 14.0115 10.7208L19.3687 5.26627Z" fill="#050542"/>
</svg>
