<svg width="40" height="40" viewBox="0 0 40 40" fill="none" xmlns="http://www.w3.org/2000/svg">
<path d="M7.81201 6.875C7.29425 6.875 6.87451 7.29473 6.87451 7.8125V13.4375C6.87451 13.9553 6.45478 14.375 5.93701 14.375C5.41924 14.375 4.99951 13.9553 4.99951 13.4375V7.8125C4.99951 6.2592 6.25871 5 7.81201 5H13.437C13.9548 5 14.3745 5.41973 14.3745 5.9375C14.3745 6.45527 13.9548 6.875 13.437 6.875H7.81201ZM25.6245 5.9375C25.6245 5.41973 26.0442 5 26.562 5H32.187C33.7403 5 34.9995 6.2592 34.9995 7.8125V13.4375C34.9995 13.9553 34.5798 14.375 34.062 14.375C33.5442 14.375 33.1245 13.9553 33.1245 13.4375V7.8125C33.1245 7.29473 32.7048 6.875 32.187 6.875H26.562C26.0442 6.875 25.6245 6.45527 25.6245 5.9375ZM5.93701 25.625C6.45478 25.625 6.87451 26.0447 6.87451 26.5625V32.1875C6.87451 32.7053 7.29425 33.125 7.81201 33.125H13.437C13.9548 33.125 14.3745 33.5447 14.3745 34.0625C14.3745 34.5803 13.9548 35 13.437 35H7.81201C6.25871 35 4.99951 33.7408 4.99951 32.1875V26.5625C4.99951 26.0447 5.41924 25.625 5.93701 25.625ZM34.062 25.625C34.5798 25.625 34.9995 26.0447 34.9995 26.5625V32.1875C34.9995 33.7408 33.7403 35 32.187 35H26.562C26.0442 35 25.6245 34.5803 25.6245 34.0625C25.6245 33.5447 26.0442 33.125 26.562 33.125H32.187C32.7048 33.125 33.1245 32.7053 33.1245 32.1875V26.5625C33.1245 26.0447 33.5442 25.625 34.062 25.625Z" fill="#FF9751"/>
<path d="M10.6245 13.4375C10.6245 12.9197 11.0442 12.5 11.562 12.5C12.0798 12.5 12.4995 12.9197 12.4995 13.4375V26.5625C12.4995 27.0803 12.0798 27.5 11.562 27.5C11.0442 27.5 10.6245 27.0803 10.6245 26.5625V13.4375Z" fill="#FF9751"/>
<path d="M14.3745 13.4375C14.3745 12.9197 14.7942 12.5 15.312 12.5C15.8298 12.5 16.2495 12.9197 16.2495 13.4375V26.5625C16.2495 27.0803 15.8298 27.5 15.312 27.5C14.7942 27.5 14.3745 27.0803 14.3745 26.5625V13.4375Z" fill="#FF9751"/>
<path d="M18.1245 13.4375C18.1245 12.9197 18.5442 12.5 19.062 12.5C19.5798 12.5 19.9995 12.9197 19.9995 13.4375V26.5625C19.9995 27.0803 19.5798 27.5 19.062 27.5C18.5442 27.5 18.1245 27.0803 18.1245 26.5625V13.4375Z" fill="#FF9751"/>
<path d="M21.8745 13.4375C21.8745 12.9197 22.2942 12.5 22.812 12.5H24.687C25.2048 12.5 25.6245 12.9197 25.6245 13.4375V26.5625C25.6245 27.0803 25.2048 27.5 24.687 27.5H22.812C22.2942 27.5 21.8745 27.0803 21.8745 26.5625V13.4375Z" fill="#FF9751"/>
<path d="M27.4995 13.4375C27.4995 12.9197 27.9192 12.5 28.437 12.5C28.9548 12.5 29.3745 12.9197 29.3745 13.4375V26.5625C29.3745 27.0803 28.9548 27.5 28.437 27.5C27.9192 27.5 27.4995 27.0803 27.4995 26.5625V13.4375Z" fill="#FF9751"/>
</svg>
