<svg width="32" height="32" viewBox="0 0 32 32" fill="none" xmlns="http://www.w3.org/2000/svg">
<path d="M4 9C4 7.34315 5.34315 6 7 6H25C26.6569 6 28 7.34315 28 9V21C28 22.6569 26.6569 24 25 24H7C5.34315 24 4 22.6569 4 21V9ZM7 7.5C6.17157 7.5 5.5 8.17157 5.5 9V9.32536L16 15.6254L26.5 9.32536V9C26.5 8.17157 25.8284 7.5 25 7.5H7ZM26.5 11.0746L19.4379 15.3119L26.5 19.6578V11.0746ZM26.4494 21.3879L17.9887 16.1814L16 17.3746L14.0113 16.1814L5.55065 21.3879C5.72162 22.0283 6.30573 22.5 7 22.5H25C25.6943 22.5 26.2784 22.0283 26.4494 21.3879ZM5.5 19.6578L12.5621 15.3119L5.5 11.0746V19.6578Z" fill="#050542"/>
</svg>
