<svg width="144" height="28" viewBox="0 0 144 28" fill="none" xmlns="http://www.w3.org/2000/svg">
<g clip-path="url(#clip0_710_9232)">
<path d="M20.7204 11.8327C20.7204 14.3571 18.6715 16.4247 16.1333 16.4247C13.595 16.4247 11.5462 14.3737 11.5462 11.8327C11.5462 9.29181 15.5361 4.43416 16.1333 0C16.7056 4.43416 20.7204 9.29181 20.7204 11.8327Z" fill="#5261AC"/>
<path d="M19.7669 26.0571C17.5853 24.7866 16.8305 21.98 18.0996 19.7961C19.3687 17.6123 22.1724 16.8566 24.3539 18.1271C26.5355 19.3975 28.7419 25.2849 32.3004 28.0085C28.1696 26.2813 21.9484 27.3109 19.7669 26.0571Z" fill="#5261AC"/>
<path d="M7.94651 18.101C10.1281 16.8306 12.9317 17.5862 14.2009 19.7701C15.47 21.9539 14.7152 24.7606 12.5336 26.031C10.352 27.3015 4.13086 26.2718 0 27.9824C3.55851 25.2754 5.74007 19.3715 7.94651 18.101Z" fill="#5261AC"/>
<path d="M46.6257 6.44615L46.0866 8.29787C46.0036 8.58019 45.8045 8.71305 45.5142 8.71305H39.293V14.7H44.7594C45.0995 14.7 45.2737 14.8827 45.2737 15.2148V16.8424C45.2737 17.1828 45.0912 17.3572 44.7594 17.3572H39.293V26.2089C39.293 26.5493 39.1106 26.7237 38.7539 26.7237H36.4479C36.2322 26.7237 36.0912 26.6822 36.0331 26.6241C35.9751 26.566 35.9502 26.4248 35.9502 26.2089V6.50427C35.9502 6.26347 35.9668 6.1223 36.0331 6.06418C36.0912 6.00605 36.2156 5.98114 36.4479 5.98114H46.1612C46.4018 5.98114 46.5594 5.99775 46.6174 6.03927C46.6755 6.1223 46.6755 6.23855 46.6174 6.43784L46.6257 6.44615Z" fill="white"/>
<path d="M53.4858 26.3157C53.4858 26.5981 53.3448 26.7309 53.0876 26.7309H50.8812C50.6821 26.7309 50.566 26.7143 50.5245 26.6479C50.483 26.5898 50.4664 26.4652 50.4664 26.2659V14.3335H48.1439C47.8453 14.3335 47.6877 14.1758 47.6877 13.8768V12.4237C47.6877 12.1247 47.8453 11.967 48.1439 11.967H53.071C53.3531 11.967 53.4858 12.1247 53.4858 12.4237V26.3157ZM53.9586 7.12593C53.9586 7.7238 53.7595 8.23863 53.3448 8.65381C52.93 9.06899 52.4323 9.26828 51.8185 9.26828C51.2462 9.26828 50.7236 9.06899 50.3088 8.65381C49.8941 8.23863 49.6701 7.74041 49.6701 7.12593C49.6701 6.55298 49.8858 6.02985 50.3088 5.61466C50.7236 5.19948 51.2462 4.97528 51.8185 4.97528C52.3909 4.97528 52.9134 5.19118 53.3282 5.61466C53.7429 6.03815 53.9669 6.52807 53.9669 7.12593H53.9586Z" fill="white"/>
<path d="M65.1479 12.431L64.3515 14.3408C64.252 14.5816 64.1359 14.6813 63.9949 14.6397C63.381 14.4986 63.0244 14.4239 62.8585 14.4239C62.1451 14.4239 61.2493 15.0383 60.1792 16.2507V26.3147C60.1792 26.597 60.0382 26.7299 59.7645 26.7299H57.6161C57.3175 26.7299 57.1599 26.5887 57.1599 26.3147V17.1641C57.1599 15.5116 56.9608 14.2578 56.5626 13.3859C56.3802 12.9873 56.2806 12.7714 56.2806 12.7465C56.2806 12.6303 56.3636 12.5306 56.4963 12.4642L58.346 11.6089C58.4456 11.5674 58.5451 11.5508 58.6281 11.5508C58.8271 11.5508 59.0677 11.8663 59.3414 12.5223C59.5571 12.979 59.723 13.4772 59.7976 13.9755C60.5691 13.1202 61.1082 12.5638 61.4234 12.3064C62.0787 11.8082 62.7921 11.5508 63.5718 11.5508C64.1276 11.5508 64.6087 11.667 64.982 11.8912C65.181 12.0075 65.2391 12.1902 65.1396 12.431H65.1479Z" fill="white"/>
<path d="M77.6239 19.0338C77.6239 19.4739 77.6074 19.7479 77.5825 19.8475C77.5244 20.0468 77.3668 20.1465 77.1263 20.1465H68.7235C68.8231 23.1109 70.0341 24.5806 72.3816 24.5806C73.1364 24.5806 73.8747 24.4395 74.5465 24.182C74.5631 24.182 75.0608 23.9412 76.0562 23.4845C76.2138 23.4015 76.3548 23.4679 76.4544 23.6672L77.1511 25.1785C77.2922 25.4774 77.1926 25.7348 76.8525 25.9341C75.5253 26.7728 73.9327 27.1631 72.083 27.1631C70.0341 27.1631 68.4249 26.4905 67.2968 25.1121C66.1604 23.7586 65.588 21.8487 65.588 19.3825C65.588 16.9163 66.1604 15.0646 67.2968 13.6364C68.4332 12.2081 69.9595 11.4857 71.8673 11.4857C73.7751 11.4857 75.1438 12.1251 76.1226 13.4122C77.1345 14.7408 77.6322 16.5925 77.6322 19.0172L77.6239 19.0338ZM74.3889 17.8214C74.3309 15.1559 73.435 13.8274 71.6848 13.8274C69.9346 13.8274 68.9392 15.1559 68.7484 17.8214H74.3889Z" fill="white"/>
<path d="M92.0487 18.6777C92.0487 21.4594 91.5344 23.5686 90.5224 25.0217C89.5105 26.4748 88.1003 27.189 86.3086 27.189C85.0395 27.189 83.8865 26.7323 82.8331 25.7939C82.7501 25.9766 82.6174 26.234 82.4183 26.5662C82.2192 26.8983 82.0368 27.0644 81.8626 27.0644C81.763 27.0644 81.6469 27.0478 81.5225 27.0063L79.7971 26.3669C79.4985 26.2672 79.4404 26.068 79.6146 25.769C80.0543 25.03 80.2699 24.0003 80.2699 22.6884V5.8319C80.2699 5.57448 80.4109 5.41671 80.6847 5.35859L82.8331 4.90188C83.1317 4.84376 83.2893 4.96001 83.2893 5.25894V12.9315C84.6579 11.9932 85.9519 11.5365 87.1464 11.5365C88.7141 11.5365 89.9252 12.151 90.763 13.3882C91.6339 14.6006 92.057 16.3693 92.057 18.6777H92.0487ZM88.9132 18.9766C88.9132 15.7133 88.0423 14.0858 86.3086 14.0858C85.4708 14.0858 84.4837 14.4843 83.3308 15.2981V23.8343C84.069 24.4072 84.8819 24.7062 85.7943 24.7062C87.8764 24.6895 88.9132 22.7797 88.9132 18.9766Z" fill="white"/>
<path d="M102.533 12.431L101.737 14.3408C101.637 14.5816 101.521 14.6813 101.38 14.6397C100.766 14.4986 100.41 14.4239 100.244 14.4239C99.5304 14.4239 98.6345 15.0383 97.5645 16.2507V26.3147C97.5645 26.597 97.4235 26.7299 97.1497 26.7299H95.0013C94.7027 26.7299 94.5451 26.5887 94.5451 26.3147V17.1641C94.5451 15.5116 94.346 14.2578 93.9479 13.3859C93.7654 12.9873 93.6659 12.7714 93.6659 12.7465C93.6659 12.6303 93.7488 12.5306 93.8815 12.4642L95.7313 11.6089C95.8308 11.5674 95.9304 11.5508 96.0133 11.5508C96.2124 11.5508 96.453 11.8663 96.7267 12.5223C96.9424 12.979 97.1083 13.4772 97.1829 13.9755C97.9377 13.1202 98.4935 12.5638 98.8087 12.3064C99.464 11.8082 100.177 11.5508 100.957 11.5508C101.513 11.5508 101.994 11.667 102.367 11.8912C102.566 12.0075 102.624 12.1902 102.525 12.431H102.533Z" fill="white"/>
<path d="M114.992 25.6177C115.133 25.8751 115.108 26.0578 114.934 26.1325L113.084 27.0459C112.968 27.104 112.869 27.1456 112.786 27.1456C112.628 27.1456 112.47 26.9878 112.288 26.6722C112.105 26.3567 111.948 25.9 111.749 25.3021C110.521 26.5311 109.169 27.1539 107.676 27.1539C106.365 27.1539 105.329 26.7553 104.557 25.983C103.786 25.1859 103.388 24.1313 103.388 22.8027C103.388 20.7517 104.258 19.3235 106.009 18.5097C107.236 17.9368 108.987 17.6129 111.293 17.5963V16.6248C111.293 15.6865 111.11 15.0554 110.753 14.6734C110.397 14.2915 109.783 14.1171 108.904 14.1171C108.024 14.1171 106.838 14.416 105.428 14.989C105.146 15.1052 104.972 15.072 104.889 14.8312L104.416 13.3615C104.375 13.2618 104.358 13.1622 104.358 13.0791C104.358 12.8383 104.557 12.639 104.955 12.4813C106.365 11.9083 107.8 11.6094 109.269 11.6094C112.587 11.6094 114.254 13.1373 114.254 16.1847V22.1135C114.27 23.5252 114.511 24.7209 114.992 25.6343V25.6177ZM111.317 23.3674V19.747C109.907 19.7636 108.87 19.9048 108.157 20.1622C107.004 20.5773 106.407 21.3745 106.407 22.5287C106.407 23.1847 106.606 23.7244 106.979 24.1562C107.377 24.5963 107.85 24.8122 108.431 24.8122C109.385 24.8288 110.322 24.3389 111.309 23.3591L111.317 23.3674Z" fill="white"/>
<path d="M129.077 26.3151C129.077 26.5974 128.919 26.7303 128.621 26.7303H126.439C126.182 26.7303 126.041 26.5891 126.041 26.3151V16.5915C126.041 14.8975 125.402 14.0423 124.117 14.0423C123.08 14.0423 121.968 14.5571 120.782 15.6117V26.3151C120.782 26.5974 120.641 26.7303 120.367 26.7303H118.186C117.904 26.7303 117.771 26.5891 117.771 26.3151V16.0102C117.771 14.8394 117.572 13.843 117.199 13.0292C117.083 12.7718 117.116 12.5891 117.315 12.4895L119.339 11.5761C119.397 11.5595 119.455 11.5345 119.521 11.5345C119.662 11.5345 119.82 11.7172 119.977 12.0494C120.094 12.2653 120.293 12.7884 120.575 13.6022C121.512 12.8631 122.2 12.3732 122.657 12.1324C123.428 11.7338 124.224 11.5595 125.079 11.5595C126.489 11.5595 127.501 11.9165 128.14 12.614C128.753 13.3281 129.077 14.5073 129.077 16.1929V26.3151H129.094H129.077Z" fill="white"/>
<path d="M143.602 26.0918L141.677 27.0052C141.578 27.0468 141.478 27.0634 141.395 27.0634C141.055 27.0634 140.74 26.507 140.458 25.3943C138.948 26.5901 137.497 27.1879 136.103 27.1879C134.593 27.1879 133.399 26.5153 132.544 25.1618C131.69 23.8083 131.25 21.94 131.25 19.5734C131.25 16.7087 131.848 14.5995 133.075 13.2294C134.071 12.0918 135.298 11.5355 136.808 11.5355C137.779 11.5355 138.832 11.851 139.968 12.4738V5.83086C139.968 5.54854 140.085 5.39077 140.309 5.35755L142.457 4.90085C142.814 4.81781 142.996 4.95898 142.996 5.29943V22.4963C142.996 23.8083 143.179 24.7799 143.535 25.4192C143.693 25.7182 143.776 25.8759 143.776 25.8925C143.776 25.9756 143.718 26.0337 143.593 26.0918H143.602ZM139.968 23.2852V14.8154C139.031 14.3172 138.16 14.0598 137.322 14.0598C136.269 14.0598 135.514 14.4584 135.074 15.2555C134.635 16.0527 134.403 17.3813 134.403 19.2496C134.403 21.1179 134.602 22.5711 135 23.4097C135.398 24.2484 136.053 24.6636 136.991 24.6636C138.027 24.6802 139.015 24.2235 139.968 23.2935V23.2852Z" fill="white"/>
</g>
<defs>
<clipPath id="clip0_710_9232">
<rect width="143.784" height="28" fill="white"/>
</clipPath>
</defs>
</svg>
