<svg width="184" height="36" viewBox="0 0 184 36" fill="none" xmlns="http://www.w3.org/2000/svg">
<g clip-path="url(#clip0_708_7775)">
<path d="M26.5006 15.2135C26.5006 18.4591 23.8802 21.1174 20.634 21.1174C17.3877 21.1174 14.7673 18.4804 14.7673 15.2135C14.7673 11.9466 19.8701 5.70107 20.634 0C21.366 5.70107 26.5006 11.9466 26.5006 15.2135Z" fill="#5261AC"/>
<path d="M25.2807 33.5018C22.4906 31.8683 21.5252 28.2598 23.1483 25.4519C24.7714 22.6441 28.3572 21.6726 31.1473 23.306C33.9374 24.9395 36.7593 32.5089 41.3105 36.0107C36.0273 33.79 28.0708 35.1139 25.2807 33.5018Z" fill="#5261AC"/>
<path d="M10.1632 23.274C12.9533 21.6406 16.539 22.6121 18.1622 25.4199C19.7853 28.2278 18.8199 31.8363 16.0298 33.4698C13.2397 35.1032 5.28315 33.7794 0 35.9787C4.55115 32.4982 7.34125 24.9075 10.1632 23.274Z" fill="#5261AC"/>
<path d="M59.6317 8.28463L58.9422 10.6654C58.8361 11.0284 58.5815 11.1992 58.2101 11.1992H50.2536V18.8967H57.2448C57.6797 18.8967 57.9025 19.1316 57.9025 19.5587V21.6512C57.9025 22.0889 57.6691 22.3131 57.2448 22.3131H50.2536V33.6939C50.2536 34.1316 50.0202 34.3558 49.564 34.3558H46.6148C46.339 34.3558 46.1586 34.3024 46.0844 34.2277C46.0101 34.153 45.9783 33.9715 45.9783 33.6939V8.35937C45.9783 8.04976 45.9995 7.86826 46.0844 7.79353C46.1586 7.7188 46.3177 7.68677 46.6148 7.68677H59.0376C59.3453 7.68677 59.5469 7.70812 59.6211 7.7615C59.6954 7.86826 59.6954 8.01773 59.6211 8.27396L59.6317 8.28463Z" fill="black"/>
<path d="M68.4051 33.8327C68.4051 34.1957 68.2248 34.3665 67.8959 34.3665H65.074C64.8194 34.3665 64.6709 34.3452 64.6178 34.2598C64.5648 34.1851 64.5436 34.0249 64.5436 33.7687V18.427H61.5731C61.1912 18.427 60.9896 18.2242 60.9896 17.8399V15.9715C60.9896 15.5872 61.1912 15.3843 61.5731 15.3843H67.8747C68.2354 15.3843 68.4051 15.5872 68.4051 15.9715V33.8327ZM69.0098 9.16014C69.0098 9.92883 68.7552 10.5907 68.2248 11.1246C67.6943 11.6584 67.0578 11.9146 66.2728 11.9146C65.5408 11.9146 64.8724 11.6584 64.342 11.1246C63.8115 10.5907 63.5251 9.95018 63.5251 9.16014C63.5251 8.42349 63.8009 7.75089 64.342 7.21708C64.8724 6.68328 65.5408 6.39502 66.2728 6.39502C67.0048 6.39502 67.6731 6.6726 68.2036 7.21708C68.734 7.76157 69.0204 8.39146 69.0204 9.16014H69.0098Z" fill="black"/>
<path d="M83.321 15.9821L82.3026 18.4377C82.1753 18.7473 82.0268 18.8754 81.8464 18.822C81.0614 18.6405 80.6052 18.5444 80.393 18.5444C79.4807 18.5444 78.3349 19.3344 76.9664 20.8932V33.8327C76.9664 34.1957 76.7861 34.3665 76.436 34.3665H73.6883C73.3064 34.3665 73.1048 34.185 73.1048 33.8327V22.0675C73.1048 19.943 72.8502 18.3309 72.341 17.2099C72.1076 16.6974 71.9803 16.4199 71.9803 16.3878C71.9803 16.2384 72.0864 16.1103 72.2561 16.0248L74.6219 14.9252C74.7492 14.8718 74.8765 14.8505 74.9826 14.8505C75.2372 14.8505 75.5448 15.2562 75.8949 16.0996C76.1707 16.6868 76.3829 17.3273 76.4784 17.9679C77.465 16.8683 78.1546 16.153 78.5577 15.822C79.3958 15.1814 80.3082 14.8505 81.3054 14.8505C82.0162 14.8505 82.6315 14.9999 83.1089 15.2882C83.3635 15.4377 83.4377 15.6725 83.3104 15.9821H83.321Z" fill="black"/>
<path d="M99.2766 24.4698C99.2766 25.0356 99.2554 25.3879 99.2235 25.516C99.1493 25.7723 98.9477 25.9004 98.6401 25.9004H87.8934C88.0207 29.7118 89.5696 31.6014 92.5719 31.6014C93.5373 31.6014 94.4814 31.4199 95.3407 31.089C95.362 31.089 95.9985 30.7794 97.2715 30.1922C97.4731 30.0854 97.6534 30.1708 97.7807 30.4271L98.6719 32.3701C98.8522 32.7545 98.7249 33.0854 98.29 33.3416C96.5926 34.4199 94.5557 34.9217 92.1899 34.9217C89.5696 34.9217 87.5115 34.057 86.0687 32.2847C84.6153 30.5445 83.8833 28.089 83.8833 24.9182C83.8833 21.7473 84.6153 19.3666 86.0687 17.5303C87.5221 15.694 89.4741 14.7651 91.9141 14.7651C94.3541 14.7651 96.1046 15.5872 97.3564 17.242C98.6507 18.9502 99.2872 21.331 99.2872 24.4484L99.2766 24.4698ZM95.1392 22.911C95.0649 19.484 93.9192 17.7758 91.6807 17.7758C89.4423 17.7758 88.1692 19.484 87.9252 22.911H95.1392Z" fill="black"/>
<path d="M117.725 24.0107C117.725 27.5872 117.067 30.2989 115.773 32.1672C114.479 34.0356 112.675 34.9537 110.384 34.9537C108.761 34.9537 107.286 34.3665 105.939 33.1601C105.833 33.395 105.663 33.726 105.408 34.153C105.154 34.58 104.92 34.7936 104.698 34.7936C104.57 34.7936 104.422 34.7722 104.263 34.7188L102.056 33.8968C101.674 33.7687 101.6 33.5124 101.823 33.1281C102.385 32.1779 102.661 30.8541 102.661 29.1672V7.49464C102.661 7.16368 102.841 6.96083 103.191 6.8861L105.939 6.29891C106.321 6.22417 106.522 6.37364 106.522 6.75798V16.6228C108.273 15.4163 109.928 14.8292 111.455 14.8292C113.46 14.8292 115.009 15.6192 116.081 17.2099C117.195 18.7687 117.736 21.0427 117.736 24.0107H117.725ZM113.715 24.395C113.715 20.1993 112.601 18.1067 110.384 18.1067C109.312 18.1067 108.05 18.6192 106.575 19.6655V30.6405C107.52 31.3772 108.559 31.7615 109.726 31.7615C112.389 31.7402 113.715 29.2847 113.715 24.395Z" fill="black"/>
<path d="M131.135 15.9821L130.116 18.4377C129.989 18.7473 129.84 18.8754 129.66 18.822C128.875 18.6405 128.419 18.5444 128.207 18.5444C127.294 18.5444 126.149 19.3344 124.78 20.8932V33.8327C124.78 34.1957 124.6 34.3665 124.25 34.3665H121.502C121.12 34.3665 120.918 34.185 120.918 33.8327V22.0675C120.918 19.943 120.664 18.3309 120.155 17.2099C119.921 16.6974 119.794 16.4199 119.794 16.3878C119.794 16.2384 119.9 16.1103 120.07 16.0248L122.435 14.9252C122.563 14.8718 122.69 14.8505 122.796 14.8505C123.051 14.8505 123.358 15.2562 123.709 16.0996C123.984 16.6868 124.197 17.3273 124.292 17.9679C125.257 16.8683 125.968 16.153 126.371 15.822C127.209 15.1814 128.122 14.8505 129.119 14.8505C129.83 14.8505 130.445 14.9999 130.922 15.2882C131.177 15.4377 131.251 15.6725 131.124 15.9821H131.135Z" fill="black"/>
<path d="M147.069 32.936C147.249 33.2669 147.217 33.5018 146.995 33.5979L144.629 34.7723C144.48 34.847 144.353 34.9004 144.247 34.9004C144.045 34.9004 143.844 34.6975 143.61 34.2918C143.377 33.8861 143.176 33.299 142.921 32.5303C141.351 34.1103 139.622 34.9111 137.712 34.9111C136.036 34.9111 134.71 34.3986 133.723 33.4057C132.737 32.3808 132.227 31.0249 132.227 29.3168C132.227 26.6797 133.341 24.8434 135.58 23.7972C137.15 23.0605 139.388 22.6442 142.337 22.6228V21.3737C142.337 20.1673 142.104 19.3559 141.648 18.8648C141.192 18.3737 140.407 18.1495 139.282 18.1495C138.158 18.1495 136.641 18.5338 134.837 19.2705C134.476 19.42 134.254 19.3773 134.148 19.0676L133.543 17.178C133.49 17.0498 133.469 16.9217 133.469 16.815C133.469 16.5054 133.723 16.2491 134.232 16.0463C136.036 15.3096 137.871 14.9253 139.749 14.9253C143.992 14.9253 146.125 16.8897 146.125 20.8079V28.4306C146.146 30.2456 146.454 31.7829 147.069 32.9573V32.936ZM142.369 30.0427V25.3879C140.566 25.4093 139.24 25.5908 138.327 25.9217C136.853 26.4555 136.089 27.4805 136.089 28.9644C136.089 29.8079 136.344 30.5018 136.821 31.057C137.33 31.6228 137.935 31.9004 138.677 31.9004C139.897 31.9217 141.096 31.2918 142.359 30.0321L142.369 30.0427Z" fill="black"/>
<path d="M165.083 33.8327C165.083 34.1956 164.881 34.3665 164.499 34.3665H161.709C161.38 34.3665 161.2 34.185 161.2 33.8327V21.3309C161.2 19.1529 160.383 18.0533 158.739 18.0533C157.412 18.0533 155.991 18.7152 154.474 20.0711V33.8327C154.474 34.1956 154.294 34.3665 153.943 34.3665H151.153C150.793 34.3665 150.623 34.185 150.623 33.8327V20.5835C150.623 19.0782 150.368 17.7971 149.891 16.7508C149.742 16.4198 149.785 16.185 150.039 16.0569L152.628 14.8825C152.702 14.8611 152.776 14.8291 152.861 14.8291C153.042 14.8291 153.243 15.064 153.445 15.491C153.593 15.7686 153.848 16.4412 154.209 17.4875C155.407 16.5373 156.288 15.9074 156.871 15.5978C157.858 15.0853 158.876 14.8611 159.969 14.8611C161.773 14.8611 163.067 15.3202 163.884 16.217C164.669 17.1352 165.083 18.6512 165.083 20.8184V33.8327H165.104H165.083Z" fill="black"/>
<path d="M183.659 33.5445L181.197 34.7188C181.07 34.7722 180.943 34.7936 180.837 34.7936C180.402 34.7936 179.999 34.0783 179.638 32.6477C177.707 34.185 175.85 34.9537 174.068 34.9537C172.137 34.9537 170.61 34.0889 169.517 32.3487C168.424 30.6085 167.862 28.2064 167.862 25.1637C167.862 21.4804 168.626 18.7687 170.196 17.0071C171.469 15.5445 173.039 14.8292 174.97 14.8292C176.211 14.8292 177.558 15.2348 179.012 16.0356V7.49463C179.012 7.13165 179.16 6.9288 179.447 6.88609L182.195 6.29891C182.651 6.19214 182.884 6.37364 182.884 6.81136V28.9217C182.884 30.6085 183.117 31.8576 183.574 32.6797C183.775 33.064 183.881 33.2669 183.881 33.2882C183.881 33.395 183.807 33.4697 183.648 33.5445H183.659ZM179.012 29.9359V19.0462C177.813 18.4057 176.699 18.0747 175.628 18.0747C174.28 18.0747 173.315 18.5872 172.753 19.6121C172.19 20.637 171.893 22.3452 171.893 24.7473C171.893 27.1494 172.148 29.0178 172.657 30.0961C173.166 31.1744 174.005 31.7082 175.203 31.7082C176.529 31.7295 177.792 31.1423 179.012 29.9466V29.9359Z" fill="black"/>
</g>
<defs>
<clipPath id="clip0_708_7775">
<rect width="183.892" height="36" fill="white"/>
</clipPath>
</defs>
</svg>
